<?xml version="1.0" encoding="UTF-8"?><svg id="Layer_1" xmlns="http://www.w3.org/2000/svg" viewBox="0 0 800 800"><defs><style>.cls-1{fill:#fff;}.cls-2{fill:#8fcff1;}.cls-3{fill:#419cd6;}.cls-4{fill:#2d57a6;}.cls-5{fill:#f18a00;fill-rule:evenodd;}</style></defs><g><path class="cls-4" d="m178.49,718.38c0,3.51-2.84,6.35-6.35,6.35s-6.35-2.84-6.35-6.35,2.84-6.35,6.35-6.35,6.35,2.84,6.35,6.35h0Z"/><path class="cls-3" d="m197.46,718.38c0,3.51-2.84,6.35-6.35,6.35s-6.35-2.84-6.35-6.35,2.84-6.35,6.35-6.35,6.35,2.84,6.35,6.35h0Z"/><path class="cls-4" d="m216.43,754.75c0,3.51-2.84,6.35-6.35,6.35s-6.35-2.84-6.35-6.35,2.84-6.35,6.35-6.35,6.35,2.84,6.35,6.35h0Z"/><path class="cls-4" d="m197.46,736.56c0,3.51-2.84,6.35-6.35,6.35s-6.35-2.84-6.35-6.35,2.84-6.35,6.35-6.35,6.35,2.84,6.35,6.35h0Z"/><path class="cls-3" d="m216.43,736.56c0,3.51-2.84,6.35-6.35,6.35s-6.35-2.84-6.35-6.35,2.84-6.35,6.35-6.35,6.35,2.84,6.35,6.35h0Z"/><path class="cls-2" d="m216.43,718.38c0,3.51-2.84,6.35-6.35,6.35s-6.35-2.84-6.35-6.35,2.84-6.35,6.35-6.35,6.35,2.84,6.35,6.35h0Z"/><polygon class="cls-4" points="426.7 721.14 435.21 721.14 435.21 712.63 426.7 712.63 426.7 721.14 426.7 721.14"/><path class="cls-4" d="m234.73,743.94h9.16c.41,3.78,2.01,6.92,8.28,6.92,4.2,0,6.98-2.3,6.98-5.62s-1.77-4.55-7.98-5.5c-10.82-1.42-15.25-4.67-15.25-12.83,0-7.21,6.03-12.59,15.37-12.59s15.08,4.26,15.84,12.65h-8.81c-.59-3.84-2.84-5.62-7.04-5.62s-6.32,1.95-6.32,4.79c0,3.01,1.36,4.43,7.86,5.38,10.23,1.3,15.49,4.08,15.49,12.83,0,7.51-6.15,13.48-16.14,13.48-11.59,0-16.91-5.44-17.44-13.89"/><path class="cls-4" d="m271.8,746.19v-19.92h8.51v18.74c0,4.2,1.72,6.21,5.38,6.21s6.45-2.25,6.45-6.8v-18.15h8.51v30.92h-8.51v-4.85c-1.6,3.13-4.73,5.5-9.81,5.5-6.03,0-10.52-3.55-10.52-11.65"/><path class="cls-4" d="m305.69,726.26h8.57v5.91c1.95-4.14,4.97-6.33,9.99-6.38v7.98c-6.32-.06-9.99,2.01-9.99,7.92v15.49h-8.57v-30.92h0Z"/><path class="cls-4" d="m347.54,738.38c-.3-4.67-2.66-6.92-6.74-6.92-3.84,0-6.44,2.54-7.09,6.92h13.84Zm-22.64,3.73v-.47c0-9.75,6.92-16.08,15.9-16.08,7.98,0,15.07,4.67,15.07,15.73v2.36h-22.28c.23,5.14,3.01,8.1,7.68,8.1,3.96,0,5.91-1.72,6.44-4.32h8.1c-1.01,6.68-6.33,10.41-14.78,10.41-9.34,0-16.14-5.85-16.14-15.72"/><path class="cls-4" d="m374.41,735.13c4.67,0,7.15-2.25,7.15-6.44v-.23c0-4.49-2.6-6.27-7.15-6.27h-4.85v12.95h4.85Zm-14.37-20.22h14.6c10.28,0,16.14,4.55,16.14,13.48v.23c0,8.93-6.21,13.18-15.84,13.18h-5.38v15.37h-9.52v-42.27h0Z"/><path class="cls-4" d="m414.58,741.93v-.41c0-5.91-2.78-9.46-7.57-9.46s-7.57,3.43-7.57,9.34v.47c0,5.91,2.72,9.46,7.57,9.46s7.57-3.55,7.57-9.4m-23.88.12v-.47c0-9.7,7.04-16.02,16.32-16.02s16.26,6.21,16.26,15.84v.47c0,9.75-7.03,15.96-16.31,15.96s-16.26-6.15-16.26-15.78"/><polygon class="cls-4" points="426.76 726.26 435.27 726.26 435.27 757.18 426.76 757.18 426.76 726.26 426.76 726.26"/><path class="cls-4" d="m440.14,726.26h8.57v4.91c1.54-3.07,4.91-5.62,10.05-5.62,6.09,0,10.4,3.66,10.4,11.94v19.69h-8.57v-18.45c0-4.2-1.66-6.21-5.44-6.21s-6.44,2.25-6.44,6.8v17.85h-8.57v-30.92h0Z"/><path class="cls-4" d="m473.38,726.26v-6.68h8.52v6.68h6.5v6.09h-6.5v14.9c0,2.48,1.24,3.67,3.43,3.67,1.3,0,2.25-.18,3.25-.59v6.62c-1.18.41-2.9.83-5.21.83-6.5,0-9.99-3.31-9.99-9.75v-21.76h0Z"/><path class="cls-4" d="m495.63,720.35c.43,0,.66-.21.66-.56,0-.37-.24-.58-.66-.58h-.49v1.14h.49Zm-.49,2.04h-.72v-3.8h1.32c.74,0,1.29.52,1.29,1.19,0,.53-.34.97-.83,1.13l.85,1.49h-.82l-.79-1.42h-.28v1.42h0Zm.43.94c1.51,0,2.71-1.22,2.71-2.81s-1.19-2.8-2.71-2.8-2.71,1.21-2.71,2.8,1.19,2.81,2.71,2.81h0Zm0-6.3c1.92,0,3.47,1.57,3.47,3.49s-1.55,3.5-3.47,3.5-3.45-1.58-3.45-3.5,1.53-3.49,3.45-3.49h0Z"/><path class="cls-4" d="m158.2,747.67h-14.24l-3.23,8.81h-2.78l11.87-31.38h2.52l11.87,31.38h-2.75l-3.25-8.81Zm-13.43-2.24h12.59l-6.29-17.09-6.3,17.09Z"/><g><path class="cls-4" d="m529.04,748.77c0-1.74-.6-3.11-1.83-4.13-1.22-1.01-3.46-1.97-6.7-2.89-3.24-.91-5.62-1.9-7.11-2.98-2.13-1.52-3.19-3.52-3.19-5.99s.99-4.35,2.96-5.85c1.98-1.5,4.5-2.25,7.58-2.25,2.08,0,3.94.4,5.59,1.21,1.65.81,2.92,1.93,3.83,3.37s1.36,3.04,1.36,4.81h-2.67c0-2.15-.73-3.88-2.2-5.18-1.47-1.31-3.44-1.96-5.9-1.96s-4.32.54-5.74,1.61c-1.43,1.07-2.14,2.47-2.14,4.19,0,1.6.64,2.9,1.92,3.91,1.29,1.01,3.33,1.9,6.15,2.67,2.81.77,4.95,1.57,6.4,2.4,1.45.82,2.54,1.81,3.27,2.96.73,1.15,1.09,2.51,1.09,4.07,0,2.47-.98,4.46-2.96,5.95-1.97,1.49-4.57,2.24-7.81,2.24-2.21,0-4.24-.4-6.09-1.19-1.85-.79-3.24-1.9-4.21-3.32-.95-1.42-1.43-3.05-1.43-4.89h2.65c0,2.22.82,3.96,2.47,5.24,1.66,1.28,3.86,1.92,6.6,1.92,2.44,0,4.4-.54,5.88-1.62,1.49-1.08,2.22-2.51,2.22-4.29Z"/><path class="cls-4" d="m535.4,744.48c0-2.24.43-4.26,1.31-6.06.86-1.79,2.1-3.19,3.69-4.19,1.59-1,3.39-1.5,5.39-1.5,3.1,0,5.62,1.08,7.54,3.26,1.93,2.17,2.88,5.06,2.88,8.65v.54c0,2.26-.43,4.28-1.3,6.09-.87,1.8-2.1,3.19-3.68,4.17-1.58.98-3.39,1.47-5.41,1.47-3.08,0-5.6-1.09-7.52-3.26-1.94-2.18-2.9-5.06-2.9-8.65v-.52Zm2.59.71c0,2.79.71,5.07,2.16,6.86,1.45,1.79,3.34,2.68,5.68,2.68s4.22-.89,5.67-2.68c1.44-1.79,2.16-4.15,2.16-7.08v-.5c0-1.78-.33-3.41-.99-4.89-.65-1.48-1.59-2.63-2.77-3.44-1.2-.81-2.56-1.22-4.1-1.22-2.3,0-4.17.9-5.63,2.71-1.45,1.8-2.17,4.16-2.17,7.08v.48Z"/><path class="cls-4" d="m564.43,756.48h-2.58v-33.1h2.58v33.1Z"/><path class="cls-4" d="m586.44,753.53c-1.56,2.26-4.03,3.39-7.43,3.39-2.49,0-4.38-.72-5.68-2.16-1.29-1.45-1.95-3.58-1.98-6.41v-15.17h2.56v14.85c0,4.44,1.8,6.66,5.39,6.66s6.1-1.55,7.08-4.64v-16.87h2.59v23.32h-2.5l-.04-2.95Z"/><path class="cls-4" d="m599.69,727.19v5.97h4.82v2.11h-4.82v15.56c0,1.3.23,2.26.69,2.89.47.63,1.25.95,2.34.95.43,0,1.13-.08,2.09-.22l.11,2.09c-.67.24-1.6.36-2.76.36-1.77,0-3.05-.51-3.86-1.54-.8-1.02-1.21-2.54-1.21-4.54v-15.56h-4.29v-2.11h4.29v-5.97h2.59Z"/><path class="cls-4" d="m609.72,726.43c0-.49.15-.9.47-1.23.31-.34.74-.51,1.3-.51s.97.17,1.3.51c.33.33.49.74.49,1.23s-.16.89-.49,1.22c-.32.33-.75.49-1.3.49s-.98-.17-1.3-.49c-.32-.33-.47-.74-.47-1.22Zm3.03,30.05h-2.58v-23.32h2.58v23.32Z"/><path class="cls-4" d="m618.34,744.48c0-2.24.43-4.26,1.31-6.06.86-1.79,2.1-3.19,3.69-4.19,1.59-1,3.39-1.5,5.39-1.5,3.1,0,5.62,1.08,7.54,3.26,1.93,2.17,2.88,5.06,2.88,8.65v.54c0,2.26-.43,4.28-1.3,6.09-.87,1.8-2.1,3.19-3.68,4.17-1.58.98-3.39,1.47-5.41,1.47-3.08,0-5.6-1.09-7.52-3.26-1.94-2.18-2.9-5.06-2.9-8.65v-.52Zm2.59.71c0,2.79.71,5.07,2.16,6.86s3.34,2.68,5.68,2.68,4.22-.89,5.67-2.68c1.44-1.79,2.16-4.15,2.16-7.08v-.5c0-1.78-.33-3.41-.99-4.89-.65-1.48-1.59-2.63-2.77-3.44-1.2-.81-2.56-1.22-4.1-1.22-2.3,0-4.17.9-5.63,2.71-1.45,1.8-2.17,4.16-2.17,7.08v.48Z"/><path class="cls-4" d="m646.94,733.17l.09,3.98c.87-1.44,1.97-2.53,3.27-3.28s2.75-1.13,4.33-1.13c2.5,0,4.36.7,5.59,2.11,1.22,1.41,1.84,3.52,1.85,6.34v15.3h-2.56v-15.32c-.02-2.08-.45-3.63-1.33-4.65s-2.26-1.53-4.17-1.53c-1.6,0-3,.5-4.24,1.5-1.23,1-2.13,2.35-2.72,4.04v15.97h-2.56v-23.32h2.45Z"/></g></g><g><path class="cls-5" d="m730.09,358.73c0,182.31-147.78,330.09-330.08,330.09S69.91,541.04,69.91,358.73,217.68,28.62,400.01,28.62s330.08,147.79,330.08,330.11Z"/><g><path class="cls-1" d="m406.1,418.41c-2.71,37.38-16.5,66.8-41.4,88.28-24.89,21.47-57.7,32.21-98.42,32.21-44.54,0-79.57-14.99-105.1-44.97-25.53-29.98-38.29-71.14-38.29-123.47v-21.23c0-33.4,5.88-62.83,17.66-88.28,11.77-25.45,28.59-44.97,50.46-58.57,21.87-13.6,47.28-20.4,76.23-20.4,40.08,0,72.37,10.74,96.87,32.21,24.49,21.47,38.65,51.62,42.47,90.42h-71.58c-1.75-22.43-7.99-38.69-18.73-48.79-10.74-10.1-27.08-15.15-49.03-15.15-23.86,0-41.71,8.55-53.56,25.65-11.85,17.1-17.94,43.62-18.25,79.57v26.25c0,37.54,5.68,64.98,17.06,82.31,11.37,17.34,29.31,26.01,53.8,26.01,22.11,0,38.61-5.05,49.51-15.15,10.89-10.1,17.14-25.73,18.73-46.88h71.58Z"/><path class="cls-1" d="m632.3,383.57h-137.43v93.05h161.28v57.5h-232.86V186.74h232.38v57.98h-160.81v82.79h137.43v56.07Z"/></g></g></svg>